<svg width="32" height="32" viewBox="0 0 32 32" fill="none" xmlns="http://www.w3.org/2000/svg">
<path d="M12 1C12 0.447715 12.4477 0 13 0H19C19.5523 0 20 0.447715 20 1C20 1.55228 19.5523 2 19 2H18V4.14189C24.785 5.11278 30 10.9469 30 18C30 22.515 27.8621 26.5302 24.5469 29.0891L25.7507 30.2929C26.1413 30.6834 26.1413 31.3166 25.7507 31.7071C25.3602 32.0976 24.7271 32.0976 24.3365 31.7071L22.8447 30.2153C20.8204 31.3519 18.4846 32 16 32C13.5154 32 11.1796 31.3519 9.15525 30.2153L7.66347 31.7071C7.27295 32.0976 6.63978 32.0976 6.24926 31.7071C5.85873 31.3166 5.85873 30.6834 6.24926 30.2929L7.45309 29.0891C4.13792 26.5302 2 22.515 2 18C2 10.9469 7.21498 5.11278 14 4.14189V2H13C12.4477 2 12 1.55228 12 1ZM17 11C17 10.4477 16.5523 10 16 10C15.4477 10 15 10.4477 15 11V17.723L12.1425 22.4855C11.8584 22.9591 12.0119 23.5733 12.4855 23.8575C12.9591 24.1416 13.5733 23.9881 13.8575 23.5145L16.8575 18.5145C16.9507 18.3591 17 18.1812 17 18V11Z" fill="#2F2D53"/>
<path d="M1.72061 10.7744C0.666433 9.85774 0 8.50669 0 7C0 4.23858 2.23858 2 5 2C6.50669 2 7.85774 2.66643 8.77443 3.72061C5.73864 5.2598 3.2598 7.73864 1.72061 10.7744Z" fill="#2F2D53"/>
<path d="M23.2256 3.72061C24.1423 2.66643 25.4933 2 27 2C29.7614 2 32 4.23858 32 7C32 8.50669 31.3336 9.85774 30.2794 10.7744C28.7402 7.73864 26.2614 5.2598 23.2256 3.72061Z" fill="#2F2D53"/>
</svg>
