<svg width="30" height="30" viewBox="0 0 30 30" fill="none" xmlns="http://www.w3.org/2000/svg">
<path fill-rule="evenodd" clip-rule="evenodd" d="M28.125 3.75C28.125 2.71447 27.2855 1.875 26.25 1.875H3.75C2.71447 1.875 1.875 2.71447 1.875 3.75V26.25C1.875 27.2855 2.71447 28.125 3.75 28.125H26.25C27.2855 28.125 28.125 27.2855 28.125 26.25V3.75ZM0 3.75C0 1.67893 1.67893 0 3.75 0H26.25C28.3211 0 30 1.67893 30 3.75V26.25C30 28.3211 28.3211 30 26.25 30H3.75C1.67893 30 0 28.3211 0 26.25V3.75ZM21.5625 14.0625C22.0803 14.0625 22.5 14.4822 22.5 15C22.5 15.5178 22.0803 15.9375 21.5625 15.9375H10.7008L14.7254 19.9621C15.0915 20.3282 15.0915 20.9218 14.7254 21.2879C14.3593 21.654 13.7657 21.654 13.3996 21.2879L7.77459 15.6629C7.40847 15.2968 7.40847 14.7032 7.77459 14.3371L13.3996 8.71209C13.7657 8.34597 14.3593 8.34597 14.7254 8.71209C15.0915 9.0782 15.0915 9.6718 14.7254 10.0379L10.7008 14.0625H21.5625Z" fill="#FF5B2E"/>
</svg>
