<svg width="32" height="32" viewBox="0 0 32 32" fill="none" xmlns="http://www.w3.org/2000/svg">
<path d="M22 13C22 12.4477 22.4477 12 23 12H25C25.5523 12 26 12.4477 26 13V15C26 15.5523 25.5523 16 25 16H23C22.4477 16 22 15.5523 22 15V13Z" fill="#FF5B2E"/>
<path d="M16 13C16 12.4477 16.4477 12 17 12H19C19.5523 12 20 12.4477 20 13V15C20 15.5523 19.5523 16 19 16H17C16.4477 16 16 15.5523 16 15V13Z" fill="#FF5B2E"/>
<path d="M6 19C6 18.4477 6.44772 18 7 18H9C9.55228 18 10 18.4477 10 19V21C10 21.5523 9.55228 22 9 22H7C6.44772 22 6 21.5523 6 21V19Z" fill="#FF5B2E"/>
<path d="M12 19C12 18.4477 12.4477 18 13 18H15C15.5523 18 16 18.4477 16 19V21C16 21.5523 15.5523 22 15 22H13C12.4477 22 12 21.5523 12 21V19Z" fill="#FF5B2E"/>
<path d="M7 0C7.55228 0 8 0.447715 8 1V2H24V1C24 0.447715 24.4477 0 25 0C25.5523 0 26 0.447715 26 1V2H28C30.2091 2 32 3.79086 32 6V28C32 30.2091 30.2091 32 28 32H4C1.79086 32 0 30.2091 0 28V6C0 3.79086 1.79086 2 4 2H6V1C6 0.447715 6.44772 0 7 0ZM2 8V28C2 29.1046 2.89543 30 4 30H28C29.1046 30 30 29.1046 30 28V8H2Z" fill="#FF5B2E"/>
</svg>
