<svg width="40" height="40" viewBox="0 0 40 40" fill="none" xmlns="http://www.w3.org/2000/svg">
<rect width="40" height="40" rx="20" fill="#FF5B2E"/>
<path d="M13.25 14.9375C12.9406 14.9375 12.6875 15.1906 12.6875 15.5V16.277L18.752 21.2551C19.4797 21.8527 20.5238 21.8527 21.2516 21.2551L27.3125 16.277V15.5C27.3125 15.1906 27.0594 14.9375 26.75 14.9375H13.25ZM12.6875 18.4602V24.5C12.6875 24.8094 12.9406 25.0625 13.25 25.0625H26.75C27.0594 25.0625 27.3125 24.8094 27.3125 24.5V18.4602L22.3203 22.5594C20.9703 23.6668 19.0262 23.6668 17.6797 22.5594L12.6875 18.4602ZM11 15.5C11 14.259 12.009 13.25 13.25 13.25H26.75C27.991 13.25 29 14.259 29 15.5V24.5C29 25.741 27.991 26.75 26.75 26.75H13.25C12.009 26.75 11 25.741 11 24.5V15.5Z" fill="white"/>
</svg>
