<svg width="40" height="40" viewBox="0 0 40 40" fill="none" xmlns="http://www.w3.org/2000/svg">
<rect width="40" height="40" rx="20" fill="#FF5B2E"/>
<path d="M20.8332 28.55C22.6367 26.293 26.75 20.8227 26.75 17.75C26.75 14.0234 23.7266 11 20 11C16.2734 11 13.25 14.0234 13.25 17.75C13.25 20.8227 17.3633 26.293 19.1668 28.55C19.5992 29.0879 20.4008 29.0879 20.8332 28.55ZM20 15.5C20.5967 15.5 21.169 15.7371 21.591 16.159C22.0129 16.581 22.25 17.1533 22.25 17.75C22.25 18.3467 22.0129 18.919 21.591 19.341C21.169 19.7629 20.5967 20 20 20C19.4033 20 18.831 19.7629 18.409 19.341C17.9871 18.919 17.75 18.3467 17.75 17.75C17.75 17.1533 17.9871 16.581 18.409 16.159C18.831 15.7371 19.4033 15.5 20 15.5Z" fill="white"/>
</svg>
