<svg width="40" height="40" viewBox="0 0 40 40" fill="none" xmlns="http://www.w3.org/2000/svg">
<rect width="40" height="40" rx="20" fill="#FF5B2E"/>
<path d="M16.7973 11.8647C16.5266 11.2108 15.8129 10.8627 15.1309 11.049L12.0371 11.8928C11.4254 12.0615 11 12.617 11 13.2498C11 21.9475 18.0523 28.9998 26.75 28.9998C27.3828 28.9998 27.9383 28.5744 28.107 27.9627L28.9508 24.869C29.1371 24.1869 28.7891 23.4733 28.1352 23.2026L24.7602 21.7963C24.1871 21.5572 23.5227 21.7225 23.1324 22.2041L21.7121 23.9373C19.2371 22.7666 17.2332 20.7627 16.0625 18.2877L17.7957 16.8709C18.2773 16.4772 18.4426 15.8162 18.2035 15.2432L16.7973 11.8682V11.8647Z" fill="white"/>
</svg>
