<svg width="20" height="19" viewBox="0 0 20 19" fill="none" xmlns="http://www.w3.org/2000/svg">
<path d="M11.141 0.882812C10.9546 0.496094 10.5609 0.25 10.1285 0.25C9.69605 0.25 9.30582 0.496094 9.11597 0.882812L6.85543 5.53398L1.80699 6.2793C1.38511 6.34258 1.03355 6.63789 0.903474 7.04219C0.773396 7.44648 0.878864 7.89297 1.18121 8.1918L4.84449 11.8164L3.97965 16.9387C3.90933 17.3605 4.08511 17.7895 4.43316 18.0391C4.78121 18.2887 5.24175 18.3203 5.62144 18.1199L10.132 15.7117L14.6425 18.1199C15.0222 18.3203 15.4828 18.2922 15.8308 18.0391C16.1789 17.7859 16.3546 17.3605 16.2843 16.9387L15.416 11.8164L19.0793 8.1918C19.3816 7.89297 19.4906 7.44648 19.357 7.04219C19.2234 6.63789 18.8753 6.34258 18.4535 6.2793L13.4015 5.53398L11.141 0.882812Z" fill="#FDC639"/>
</svg>
