<svg width="19" height="16" viewBox="0 0 19 16" fill="none" xmlns="http://www.w3.org/2000/svg">
<path d="M12.4111 8.47168C11.7274 7.82419 10.8216 7.46333 9.87987 7.46333C8.93821 7.46333 8.03235 7.82419 7.34862 8.47168L4.29549 11.3592C2.54549 12.9498 3.80799 15.9905 6.17049 15.8717C7.45174 15.8373 8.49237 15.1811 9.87674 15.2061C11.3111 15.1811 12.3768 15.7592 13.6643 15.8717C15.9861 15.9248 17.1861 12.9186 15.4611 11.3592L12.4111 8.47168ZM17.6674 4.22793C16.4736 3.99356 15.5611 5.32168 15.3236 6.46543C14.6111 10.0061 18.0424 10.6811 18.8455 7.24668C19.1736 5.77481 18.6549 4.44668 17.6674 4.22793ZM12.608 6.14043C13.7955 6.14043 14.7611 4.79043 14.7611 3.13418C14.6424 -0.85332 10.5736 -0.85332 10.458 3.13418C10.458 4.79043 11.4236 6.14043 12.608 6.14043ZM4.43612 6.46543C4.20174 5.32168 3.28612 3.99356 2.09237 4.22793C-0.120128 4.78731 0.817372 9.50293 2.97987 9.51543C4.20487 9.47481 4.77049 8.05293 4.43612 6.46543ZM7.15174 6.14043C8.33612 6.14043 9.30174 4.79043 9.30174 3.13418C9.18612 -0.85332 5.11737 -0.85332 4.99862 3.13418C4.99862 4.79043 5.96424 6.14043 7.15174 6.14043Z" fill="#FF5B2E"/>
</svg>
